<?xml version="1.0" standalone="no"?>
<!DOCTYPE svg PUBLIC "-//W3C//DTD SVG 20010904//EN"
 "http://www.w3.org/TR/2001/REC-SVG-20010904/DTD/svg10.dtd">
<svg version="1.0" xmlns="http://www.w3.org/2000/svg"
 width="300.000000pt" height="300.000000pt" viewBox="0 0 300.000000 300.000000"
 preserveAspectRatio="xMidYMid meet">
<metadata>
Created by potrace 1.10, written by Peter Selinger 2001-2011
</metadata>
<g transform="translate(0.000000,300.000000) scale(0.100000,-0.100000)"
fill="#000000" stroke="none">
<path d="M0 1500 l0 -1500 1500 0 1500 0 0 1500 0 1500 -1500 0 -1500 0 0
-1500z m728 836 c7 -14 31 -38 53 -52 49 -31 48 -52 -4 -77 -21 -9 -42 -28
-46 -40 -5 -13 -16 -28 -24 -35 -12 -11 -19 -8 -36 14 -12 15 -21 31 -21 36 0
5 -15 15 -34 23 -34 14 -51 39 -40 57 4 5 22 16 41 24 18 8 37 22 40 32 9 26
35 53 47 49 6 -2 17 -16 24 -31z m1620 1 c6 -7 14 -32 18 -55 9 -59 37 -91 85
-98 22 -4 50 -14 61 -24 l21 -17 -23 -21 c-13 -12 -27 -19 -32 -16 -4 3 -24 0
-43 -6 -38 -12 -58 -41 -70 -100 -8 -40 -22 -60 -40 -60 -14 0 -28 31 -45 96
-8 34 -17 44 -47 57 -21 8 -51 18 -66 22 -59 12 -42 59 26 69 68 11 84 28 102
111 11 50 33 67 53 42z m-682 -37 c333 -69 582 -299 670 -620 8 -30 17 -64 20
-75 12 -48 4 -264 -11 -330 -51 -224 -173 -397 -361 -517 -177 -112 -416 -157
-612 -114 -93 21 -32 90 170 190 54 26 113 64 133 84 42 44 68 106 63 155 l-3
35 -88 -54 c-49 -30 -96 -54 -106 -54 -23 0 -71 -44 -71 -66 0 -30 -63 -135
-104 -174 -23 -22 -86 -73 -141 -114 -90 -68 -102 -74 -120 -62 -28 19 -30 51
-5 84 12 15 72 80 133 146 62 65 114 123 115 127 11 27 -26 -2 -115 -93 -55
-57 -119 -118 -142 -137 -38 -30 -137 -76 -185 -86 -41 -9 -95 -30 -175 -67
-75 -36 -85 -39 -99 -25 -14 14 -12 23 18 89 17 40 45 112 61 160 51 156 69
180 272 362 80 72 100 96 79 96 -5 0 -37 -27 -73 -61 -88 -83 -120 -111 -151
-134 -128 -95 -134 -97 -162 -66 -14 15 -15 24 -7 39 16 30 120 154 142 170
11 7 17 17 15 21 -3 4 6 14 19 21 14 7 25 17 25 21 0 11 127 89 145 89 28 0
52 19 59 45 6 25 52 129 83 188 14 28 14 29 -9 21 -13 -4 -32 -8 -44 -9 -35
-4 -100 -42 -127 -74 -14 -17 -48 -77 -76 -133 -46 -94 -124 -198 -149 -198
-23 0 -42 43 -61 133 -32 157 -10 341 59 502 43 100 174 266 250 318 14 9 43
29 65 45 83 58 241 118 345 129 25 3 46 6 47 7 7 7 157 -3 209 -14z m-870
-171 c8 -16 24 -34 37 -40 43 -22 57 -40 47 -59 -5 -10 -21 -21 -35 -24 -13
-3 -31 -19 -39 -34 -29 -56 -41 -58 -76 -8 -17 26 -37 46 -44 46 -19 0 -46 34
-38 46 4 6 21 19 39 29 28 16 59 59 55 76 -4 20 41 -8 54 -32z m1558 -1193 c9
-19 16 -43 16 -54 0 -35 38 -70 95 -86 30 -9 57 -21 60 -27 11 -17 -16 -39
-57 -45 -58 -10 -83 -35 -102 -104 -10 -34 -23 -60 -30 -60 -21 0 -43 32 -49
74 -3 21 -14 47 -23 57 -15 17 -29 22 -93 34 -32 6 -45 20 -38 40 7 17 11 19
75 35 48 12 69 38 84 102 9 42 24 68 38 68 4 0 15 -15 24 -34z"/>
<path d="M678 2310 c-13 -31 -23 -42 -48 -46 -41 -9 -46 -21 -11 -29 33 -7 55
-29 66 -65 l8 -25 11 26 c17 40 35 57 67 64 32 7 40 25 10 25 -36 0 -53 13
-70 51 l-16 38 -17 -39z"/>
<path d="M2316 2285 c-12 -90 -35 -112 -136 -132 l-45 -9 61 -12 c33 -7 70
-21 82 -32 21 -20 42 -77 42 -117 0 -13 5 -23 10 -23 6 0 10 15 10 33 0 17 9
50 19 73 19 43 42 56 116 70 l40 7 -64 16 c-76 19 -101 45 -108 115 -7 62 -19
66 -27 11z"/>
<path d="M1378 2275 c-163 -31 -312 -109 -428 -225 -112 -110 -178 -222 -223
-378 -29 -104 -30 -314 0 -411 l19 -63 43 48 c23 26 66 96 94 154 80 163 154
220 284 220 l54 0 -19 -27 c-31 -45 -74 -133 -97 -203 -21 -60 -25 -65 -59
-72 -86 -18 -161 -77 -281 -219 -70 -84 -89 -119 -64 -119 15 0 184 138 288
234 70 65 87 76 90 60 1 -10 10 -26 18 -35 13 -15 -1 -30 -132 -149 -162 -147
-190 -185 -231 -320 -21 -69 -53 -146 -92 -223 -2 -4 31 10 75 31 43 22 123
54 178 71 55 18 118 43 140 56 22 13 98 82 169 153 116 117 131 129 152 121
13 -4 31 -6 39 -3 34 13 9 -20 -102 -138 -159 -166 -199 -216 -185 -230 7 -7
33 7 89 48 157 116 231 204 251 300 7 32 13 38 77 65 39 16 106 54 150 83 87
59 95 58 95 -10 0 -128 -61 -207 -223 -290 -108 -55 -196 -111 -197 -126 0
-11 90 -22 185 -21 235 2 434 88 590 254 111 120 168 233 201 406 56 297 -67
615 -309 799 -75 57 -218 126 -307 148 -94 24 -240 28 -332 11z m-110 -247
c27 -27 -5 -73 -38 -53 -14 9 -12 52 3 58 19 8 22 8 35 -5z m-91 -123 c39 -24
40 -31 8 -39 -25 -6 -55 -51 -55 -81 0 -26 -17 -8 -24 25 -3 20 -16 37 -36 48
-37 21 -37 27 -2 44 19 9 31 27 41 58 l14 45 11 -40 c8 -27 22 -46 43 -60z
m832 12 c13 -75 15 -230 2 -225 -12 4 -279 252 -280 259 -2 11 108 26 190 28
l77 1 11 -63z m-155 -125 l154 -143 -19 -72 c-62 -223 -250 -426 -490 -528
-129 -55 -124 -55 -183 0 l-51 49 -80 -75 c-93 -86 -200 -166 -216 -161 -14 5
63 102 164 205 l81 82 -53 56 c-50 52 -53 58 -46 93 11 60 70 198 121 280 27
44 86 115 138 168 78 77 106 98 195 143 58 28 110 51 118 49 7 -2 82 -67 167
-146z m-844 -27 c19 -23 8 -50 -20 -50 -16 0 -26 6 -28 18 -4 18 14 47 28 47
4 0 13 -7 20 -15z m1184 -367 c8 -14 7 -21 -6 -34 -30 -30 -75 9 -48 42 16 18
39 15 54 -8z m-119 -90 c6 -19 24 -42 43 -54 l32 -22 -34 -20 c-26 -15 -37
-30 -42 -56 -7 -41 -24 -48 -24 -11 0 25 -32 66 -61 78 -11 5 -10 9 6 21 40
31 46 38 52 67 7 38 17 37 28 -3z"/>
<path d="M1101 1896 c-9 -11 -8 -18 5 -31 17 -16 18 -16 31 1 9 13 10 21 2 31
-14 17 -24 16 -38 -1z"/>
<path d="M1842 1950 c-35 -8 -49 -17 -40 -25 8 -9 157 18 152 27 -6 10 -67 9
-112 -2z"/>
<path d="M1966 1922 c-4 -7 -22 -12 -39 -12 -46 0 -77 -10 -77 -25 0 -13 127
-132 137 -127 8 3 4 113 -6 148 -5 18 -10 24 -15 16z"/>
<path d="M1660 1900 c0 -5 -7 -10 -15 -10 -22 0 -83 -30 -145 -71 -101 -67
-196 -171 -265 -291 -15 -27 -24 -48 -21 -48 4 0 23 11 44 23 99 63 221 46
310 -43 73 -73 92 -183 47 -275 -13 -27 -22 -51 -20 -53 9 -9 121 76 188 142
73 72 132 166 169 271 30 84 27 93 -64 179 -46 43 -108 102 -138 132 -50 49
-90 69 -90 44z m147 -126 c46 -35 66 -70 71 -127 5 -61 -9 -96 -57 -142 -27
-25 -41 -30 -94 -32 -76 -5 -130 22 -165 82 -43 75 -9 189 69 229 46 23 139
17 176 -10z"/>
<path d="M1655 1766 c-53 -23 -85 -71 -85 -125 0 -162 218 -207 275 -57 21 54
9 109 -32 148 -49 47 -102 58 -158 34z m130 -81 c33 -33 32 -70 -4 -106 -33
-33 -86 -43 -59 -11 31 36 33 87 2 61 -11 -9 -17 -9 -29 1 -22 18 -18 46 7 64
32 22 55 20 83 -9z"/>
<path d="M1715 1670 c-3 -5 1 -10 10 -10 9 0 25 -10 36 -22 18 -22 19 -22 16
-3 -1 11 -6 26 -10 33 -10 14 -43 16 -52 2z"/>
<path d="M1283 1489 c-24 -11 -57 -39 -74 -60 -34 -43 -34 -45 7 -24 16 8 48
15 72 15 42 0 114 -29 128 -51 4 -6 -28 -46 -75 -93 -79 -80 -81 -83 -63 -99
18 -17 22 -14 98 63 43 44 82 79 88 77 19 -6 56 -90 56 -126 0 -20 -9 -53 -19
-74 -10 -20 -15 -37 -11 -37 17 0 98 99 110 134 32 97 -7 207 -92 263 -57 38
-163 44 -225 12z"/>
<path d="M1223 1386 c-54 -8 -62 -12 -69 -35 -18 -68 -15 -79 36 -137 l50 -57
-17 -28 c-10 -16 -21 -29 -25 -29 -4 0 -8 -7 -8 -16 0 -8 -4 -13 -8 -10 -5 3
-17 -5 -27 -17 -9 -12 -32 -37 -49 -56 -50 -54 8 -12 74 54 73 73 94 78 134
33 44 -50 64 -58 105 -44 19 7 38 19 42 27 28 59 40 169 17 169 -6 0 -8 3 -5
7 4 3 2 12 -5 20 -9 12 -25 0 -89 -63 -78 -77 -78 -77 -103 -60 -48 31 -44 59
15 120 98 98 94 92 67 110 -32 20 -62 23 -135 12z"/>
<path d="M2042 1247 c-7 -8 -7 -17 2 -29 11 -15 15 -16 32 -4 15 12 16 16 5
30 -16 19 -25 20 -39 3z"/>
<path d="M750 2109 c-15 -32 -22 -38 -70 -57 l-25 -10 30 -7 c39 -10 62 -30
70 -63 l7 -27 16 35 c11 21 31 42 52 52 31 14 33 17 15 23 -39 13 -50 22 -65
54 l-16 32 -14 -32z"/>
<path d="M2315 893 c-8 -69 -42 -108 -101 -118 -76 -12 -83 -22 -22 -29 32 -4
68 -16 82 -27 26 -21 46 -73 46 -122 0 -16 4 -26 10 -22 6 3 10 20 10 36 0 42
24 95 52 112 12 9 45 19 71 22 57 9 55 14 -9 26 -26 5 -56 17 -67 27 -25 22
-47 73 -47 111 0 53 -18 42 -25 -16z"/>
</g>
</svg>
