<?xml version="1.0" standalone="no"?>
<!DOCTYPE svg PUBLIC "-//W3C//DTD SVG 20010904//EN"
 "http://www.w3.org/TR/2001/REC-SVG-20010904/DTD/svg10.dtd">
<svg version="1.0" xmlns="http://www.w3.org/2000/svg"
 width="300.000000pt" height="300.000000pt" viewBox="0 0 300.000000 300.000000"
 preserveAspectRatio="xMidYMid meet">
<metadata>
Created by potrace 1.10, written by Peter Selinger 2001-2011
</metadata>
<g transform="translate(0.000000,300.000000) scale(0.100000,-0.100000)"
fill="#000000" stroke="none">
<path d="M654 2338 c-15 -18 -40 -41 -55 -50 -16 -10 -29 -25 -29 -34 0 -10
29 -45 65 -79 l64 -62 -29 -28 c-17 -16 -30 -34 -30 -40 0 -16 122 -120 137
-117 18 4 17 0 -21 -76 -35 -70 -62 -143 -71 -189 -2 -16 -9 -52 -15 -82 -14
-72 -12 -160 4 -252 16 -89 38 -136 71 -151 l24 -11 -55 -69 c-58 -75 -66
-104 -34 -133 18 -16 25 -17 54 -7 47 17 47 16 21 -30 -13 -24 -39 -91 -59
-149 -19 -58 -46 -131 -59 -161 -23 -51 -24 -58 -10 -77 18 -27 36 -26 103 5
30 14 102 41 160 60 58 19 125 45 150 57 25 12 49 23 53 25 5 3 1 -7 -8 -22
-21 -32 -14 -68 18 -85 30 -16 41 -10 145 66 40 29 72 47 72 40 0 -8 11 -23
23 -35 40 -38 162 -45 331 -21 262 37 499 211 616 449 12 25 25 52 30 61 4 8
18 55 31 105 34 134 32 325 -5 449 -70 233 -213 412 -424 527 -123 68 -258
101 -407 101 -129 0 -220 -19 -329 -67 -31 -14 -59 -25 -61 -25 -13 0 -154
-104 -185 -136 -19 -19 -39 -35 -45 -35 -5 0 -39 27 -75 59 l-65 60 40 34 39
34 -29 27 c-17 16 -46 43 -65 62 -20 19 -41 34 -47 34 -6 0 -24 -15 -39 -32z
m110 -74 c43 -8 47 -21 9 -30 -36 -9 -63 -32 -63 -55 0 -28 -19 -32 -26 -5 -7
30 -31 51 -66 60 -39 9 -35 22 8 31 31 5 39 13 52 47 l16 41 17 -41 c15 -34
24 -42 53 -48z m961 -4 c145 -39 268 -111 381 -225 220 -221 290 -546 185
-853 -38 -109 -81 -180 -166 -271 -114 -121 -266 -207 -430 -242 -65 -13 -269
-15 -324 -2 l-35 9 50 35 c27 19 100 62 162 94 131 68 183 118 207 198 16 55
20 143 6 151 -4 3 -32 -13 -62 -35 -47 -35 -178 -104 -231 -122 -10 -4 -18
-16 -18 -29 0 -46 -56 -142 -116 -199 -92 -86 -214 -173 -226 -161 -15 15 11
48 171 217 125 132 150 164 116 151 -8 -3 -25 -1 -37 3 -20 8 -39 -7 -163
-129 -149 -146 -176 -165 -295 -200 -91 -27 -162 -56 -213 -88 -22 -13 -40
-22 -42 -20 -2 2 9 30 26 63 16 33 43 103 59 155 47 147 72 183 230 325 77 70
140 132 140 139 0 7 -4 16 -9 21 -5 6 -11 19 -13 29 -2 16 -20 4 -93 -64 -109
-101 -268 -230 -284 -230 -25 0 -7 34 64 119 119 142 195 201 280 219 33 7 38
12 59 72 25 72 68 160 99 204 l20 28 -69 -4 c-130 -8 -194 -59 -271 -219 -29
-60 -69 -125 -95 -154 l-45 -49 -19 74 c-28 110 -26 298 5 405 88 313 334 540
649 600 99 19 242 12 347 -15z m-915 -191 c8 -4 26 -11 40 -17 l25 -10 -30 -7
c-38 -10 -62 -30 -69 -61 -7 -27 -26 -23 -26 5 0 23 -27 46 -65 56 l-30 7 43
19 c23 10 45 25 47 34 16 51 16 51 33 16 10 -19 24 -38 32 -42z m320 -502 c0
-20 -68 -178 -84 -196 -8 -9 -32 -23 -53 -30 -21 -8 -57 -26 -80 -42 -24 -16
-43 -25 -43 -21 0 17 101 207 122 230 20 22 111 72 131 72 4 0 7 -6 7 -13z
m592 -527 c-7 -82 -61 -134 -219 -214 l-93 -46 35 63 c19 35 35 71 35 81 0 22
45 63 78 71 15 4 54 24 87 45 33 21 65 37 70 35 6 -1 9 -17 7 -35z"/>
<path d="M1232 2031 c-8 -4 -12 -19 -10 -32 2 -18 9 -24 28 -24 28 0 39 27 20
50 -14 17 -20 18 -38 6z"/>
<path d="M1109 1960 c-10 -31 -22 -49 -41 -58 -28 -13 -38 -32 -18 -32 21 0
60 -49 60 -75 0 -14 5 -25 10 -25 6 0 10 7 10 15 0 30 31 75 55 81 32 8 31 15
-8 39 -21 14 -35 33 -43 60 l-11 40 -14 -45z"/>
<path d="M1785 1968 c-27 -5 -51 -11 -53 -13 -2 -1 23 -27 55 -56 32 -30 94
-89 139 -131 44 -43 84 -78 89 -78 8 0 0 216 -11 263 -6 27 -7 27 -88 26 -44
-1 -103 -6 -131 -11z m173 -20 c-2 -6 -15 -12 -29 -13 -13 -1 -48 -5 -76 -9
-36 -5 -53 -4 -53 3 0 6 12 13 28 17 15 3 32 7 37 9 27 9 96 4 93 -7z m16 -69
c10 -51 7 -89 -7 -89 -17 0 -101 86 -94 97 3 5 20 10 38 11 18 1 35 5 38 7 11
11 19 3 25 -26z"/>
<path d="M1604 1906 c-205 -97 -362 -269 -453 -497 -51 -129 -51 -137 10 -203
l52 -57 -80 -82 c-102 -104 -179 -200 -164 -205 16 -5 109 63 210 156 l88 81
44 -45 c39 -41 48 -45 80 -41 102 13 286 123 405 242 101 101 157 195 193 322
l19 72 -154 143 c-85 79 -160 144 -167 145 -7 2 -44 -13 -83 -31z m123 -48
c18 -18 33 -35 33 -38 0 -3 -22 -7 -48 -7 -153 -2 -238 -177 -140 -289 42 -48
80 -65 144 -66 45 -1 61 3 96 28 55 39 78 85 78 157 l0 59 29 -24 c17 -13 33
-31 36 -41 4 -9 -5 -53 -20 -96 -44 -132 -154 -277 -259 -342 -39 -24 -47 -27
-41 -12 4 10 10 50 12 89 5 58 2 77 -16 112 -32 64 -77 109 -137 138 -48 24
-63 26 -127 21 -39 -2 -80 -8 -89 -12 -75 -31 121 207 222 270 77 49 151 85
173 85 12 0 36 -14 54 -32z m49 -99 c106 -51 105 -203 -1 -253 -43 -21 -101
-17 -141 9 -67 44 -86 148 -37 206 50 59 110 72 179 38z m-303 -262 c49 -21
98 -67 118 -112 24 -52 24 -138 0 -190 -17 -38 -86 -115 -102 -115 -4 0 2 17
13 38 15 28 18 49 14 85 -5 46 -39 117 -55 117 -4 0 -43 -36 -85 -80 -43 -44
-81 -80 -84 -80 -2 0 -11 8 -18 18 -11 15 -4 26 68 98 46 47 78 87 74 93 -14
22 -86 51 -128 51 -24 0 -56 -7 -72 -15 -16 -9 -30 -14 -32 -12 -9 9 61 77 98
96 50 25 141 28 191 8z m-131 -131 c19 -12 16 -16 -70 -111 l-52 -56 -26 28
c-37 39 -43 62 -29 103 9 26 19 37 41 42 41 9 116 6 136 -6z m132 -149 c10
-29 -9 -131 -28 -146 -6 -5 -25 -12 -43 -15 -27 -6 -36 -2 -68 29 l-37 36 38
28 c22 16 55 45 74 65 38 41 51 41 64 3z"/>
<path d="M1702 1694 c-25 -18 -29 -46 -7 -64 12 -10 18 -10 29 -1 31 26 29
-25 -2 -61 -27 -32 26 -22 59 11 36 36 37 73 4 106 -28 29 -51 31 -83 9z"/>
<path d="M970 1765 c-19 -23 -8 -50 20 -50 16 0 26 6 28 18 4 18 -14 47 -28
47 -4 0 -13 -7 -20 -15z"/>
<path d="M2140 1406 c-27 -33 18 -72 48 -42 13 13 14 20 6 34 -15 23 -38 26
-54 8z"/>
<path d="M2045 1304 c-5 -28 -13 -39 -36 -47 -27 -11 -41 -37 -19 -37 21 0 60
-49 60 -75 0 -37 17 -30 24 11 5 26 16 41 42 56 19 11 34 22 34 25 0 2 -13 9
-29 14 -27 10 -51 44 -51 74 0 30 -18 14 -25 -21z"/>
<path d="M2301 2324 c-12 -15 -21 -33 -21 -41 0 -36 -30 -69 -79 -86 -90 -33
-93 -64 -8 -101 63 -28 74 -40 90 -96 24 -85 62 -77 101 21 19 49 25 55 70 71
104 37 98 69 -25 116 -15 6 -33 26 -43 49 -44 100 -53 108 -85 67z m42 -46
c10 -84 34 -106 132 -123 44 -8 45 -8 -53 -34 -37 -10 -46 -19 -63 -54 -10
-23 -19 -56 -19 -74 0 -52 -17 -47 -24 8 -4 27 -12 61 -18 74 -12 26 -62 55
-100 56 -12 0 -32 4 -43 9 -17 6 -13 9 20 15 107 18 129 39 142 130 3 25 9 45
13 45 4 0 10 -24 13 -52z"/>
<path d="M2301 944 c-12 -15 -21 -34 -21 -43 0 -36 -39 -80 -79 -91 -95 -25
-92 -84 5 -105 38 -7 60 -30 69 -70 11 -45 33 -75 55 -75 20 0 27 11 59 92 7
20 29 36 76 59 82 38 82 53 0 94 -36 18 -64 40 -71 55 -54 118 -61 125 -93 84z
m42 -45 c4 -28 14 -63 22 -76 18 -27 71 -53 109 -53 45 0 37 -18 -12 -25 -26
-3 -58 -13 -70 -22 -28 -17 -52 -70 -52 -112 0 -53 -18 -42 -25 16 -5 42 -14
63 -34 84 -21 20 -42 29 -84 34 -58 7 -69 25 -16 25 36 0 89 21 107 43 8 9 19
43 25 76 6 34 14 61 18 61 3 0 9 -23 12 -51z"/>
</g>
</svg>
